<?xml version="1.0" encoding="utf-8"?>
<!-- Generator: Adobe Illustrator 16.0.4, SVG Export Plug-In . SVG Version: 6.00 Build 0)  -->
<!DOCTYPE svg PUBLIC "-//W3C//DTD SVG 1.1//EN" "http://www.w3.org/Graphics/SVG/1.1/DTD/svg11.dtd">
<svg version="1.1" id="Ebene_1" xmlns="http://www.w3.org/2000/svg" xmlns:xlink="http://www.w3.org/1999/xlink" x="0px" y="0px"
	 width="16px" height="16px" viewBox="0 0 16 16" enable-background="new 0 0 16 16" xml:space="preserve">
<path fill="#003768" d="M14.9,4.9v10.3c0,0.5-0.4,0.9-0.9,0.9H2c-0.5,0-0.9-0.4-0.9-0.9V0.9C1.1,0.4,1.5,0,2,0h8
	c0.5,0,1.1,0.3,1.5,0.6l2.8,2.8C14.6,3.7,14.9,4.4,14.9,4.9z M13.7,5.7H10c-0.5,0-0.9-0.4-0.9-0.9V1.1H2.3v13.7h11.4V5.7z M3.4,7.4
	c0-0.9,0.8-1.7,1.7-1.7s1.7,0.8,1.7,1.7c0,0.9-0.8,1.7-1.7,1.7S3.4,8.4,3.4,7.4z M12.6,13.7H3.4V12l1.7-1.7l1.1,1.1L9.7,8l2.9,2.9
	V13.7z M10.3,4.6h3.4c-0.1-0.2-0.1-0.3-0.2-0.4l-2.8-2.8c-0.1-0.1-0.2-0.1-0.4-0.2V4.6z"/>
<rect fill="none" width="16" height="16"/>
</svg>
