<?xml version="1.0" encoding="utf-8"?>
<!-- Generator: Adobe Illustrator 16.0.4, SVG Export Plug-In . SVG Version: 6.00 Build 0)  -->
<!DOCTYPE svg PUBLIC "-//W3C//DTD SVG 1.1//EN" "http://www.w3.org/Graphics/SVG/1.1/DTD/svg11.dtd">
<svg version="1.1" id="Ebene_1" xmlns="http://www.w3.org/2000/svg" xmlns:xlink="http://www.w3.org/1999/xlink" x="0px" y="0px"
	 width="16px" height="16px" viewBox="0 0 16 16" enable-background="new 0 0 16 16" xml:space="preserve">
<rect fill="none" width="16" height="16"/>
<path fill="#003768" d="M14.2,3.4c0.2,0.2,0.3,0.4,0.4,0.7s0.2,0.5,0.2,0.8v10.3c0,0.2-0.1,0.4-0.2,0.6S14.2,16,14,16H2
	c-0.2,0-0.4-0.1-0.6-0.2s-0.2-0.4-0.2-0.6V0.9c0-0.2,0.1-0.4,0.2-0.6S1.8,0,2,0h8c0.2,0,0.5,0.1,0.8,0.2c0.3,0.1,0.5,0.3,0.7,0.4
	L14.2,3.4z M10.3,1.2v3.4h3.4c-0.1-0.2-0.1-0.3-0.2-0.4l-2.8-2.8C10.6,1.3,10.5,1.3,10.3,1.2z M13.7,14.9V5.7H10
	c-0.2,0-0.4-0.1-0.6-0.2S9.1,5.1,9.1,4.9V1.1H2.3v13.7H13.7z M6.7,7.6c0.1,0,0.2,0.1,0.2,0.3v4.9c0,0.1-0.1,0.2-0.2,0.3
	c0,0-0.1,0-0.1,0c-0.1,0-0.1,0-0.2-0.1l-1.5-1.5H3.7c-0.1,0-0.2,0-0.2-0.1c-0.1-0.1-0.1-0.1-0.1-0.2V9.4c0-0.1,0-0.2,0.1-0.2
	c0.1-0.1,0.1-0.1,0.2-0.1h1.2l1.5-1.5C6.5,7.6,6.6,7.5,6.7,7.6z M10.4,13.7c0.2,0,0.3-0.1,0.4-0.2c0.8-0.9,1.2-2,1.2-3.2
	C12,9.1,11.6,8,10.8,7c-0.1-0.1-0.2-0.2-0.4-0.2c-0.2,0-0.3,0-0.4,0.1C9.9,7.1,9.8,7.2,9.8,7.3c0,0.2,0,0.3,0.1,0.4
	c0.6,0.7,0.9,1.6,0.9,2.5c0,0.9-0.3,1.8-0.9,2.5c-0.1,0.1-0.1,0.3-0.1,0.4c0,0.2,0.1,0.3,0.2,0.4C10.2,13.7,10.3,13.7,10.4,13.7z
	 M8.5,12.4c0.2,0,0.3-0.1,0.4-0.2c0.5-0.6,0.8-1.2,0.8-2s-0.3-1.4-0.8-2C8.8,8.2,8.7,8.2,8.5,8.2c-0.2,0-0.3,0-0.4,0.2
	C8,8.4,8,8.5,7.9,8.7c0,0.2,0,0.3,0.2,0.4c0.3,0.3,0.5,0.7,0.5,1.2s-0.2,0.8-0.5,1.2c-0.1,0.1-0.2,0.3-0.2,0.4C8,12,8,12.2,8.1,12.3
	C8.2,12.4,8.4,12.4,8.5,12.4z"/>
</svg>
