<?xml version="1.0" encoding="utf-8"?>
<!-- Generator: Adobe Illustrator 16.0.4, SVG Export Plug-In . SVG Version: 6.00 Build 0)  -->
<!DOCTYPE svg PUBLIC "-//W3C//DTD SVG 1.1//EN" "http://www.w3.org/Graphics/SVG/1.1/DTD/svg11.dtd">
<svg version="1.1" xmlns="http://www.w3.org/2000/svg" xmlns:xlink="http://www.w3.org/1999/xlink" x="0px" y="0px" width="16px"
	 height="16px" viewBox="0 0 16 16" enable-background="new 0 0 16 16" xml:space="preserve">
<g id="Ebene_1">
	<rect fill="none" width="16" height="16"/>
</g>
<g id="Ebene_2">
	<path fill="#003768" d="M6.9,3.4V2.3H5.7v1.1H6.9z M8,4.6V3.4H6.9v1.1H8z M6.9,5.7V4.6H5.7v1.1H6.9z M8,6.9V5.7H6.9v1.1H8z
		 M14.2,3.4c0.2,0.2,0.3,0.4,0.4,0.7s0.2,0.5,0.2,0.8v10.3c0,0.2-0.1,0.4-0.2,0.6C14.4,15.9,14.2,16,14,16H2c-0.2,0-0.4-0.1-0.6-0.2
		c-0.2-0.2-0.2-0.4-0.2-0.6V0.9c0-0.2,0.1-0.4,0.2-0.6S1.8,0,2,0h8c0.2,0,0.5,0.1,0.8,0.2c0.3,0.1,0.5,0.3,0.7,0.4L14.2,3.4z
		 M10.3,1.2v3.4h3.4c-0.1-0.2-0.1-0.3-0.2-0.4l-2.8-2.8C10.6,1.3,10.5,1.3,10.3,1.2z M13.7,14.9V5.7H10c-0.2,0-0.4-0.1-0.6-0.2
		C9.2,5.3,9.1,5.1,9.1,4.9V1.1H8v1.1H6.9V1.1H2.3v13.7H13.7z M8.1,8.4l1,3.1c0,0.2,0.1,0.3,0.1,0.5c0,0.5-0.2,0.9-0.6,1.2
		s-1,0.5-1.6,0.5s-1.2-0.2-1.6-0.5c-0.4-0.3-0.6-0.7-0.6-1.2c0-0.1,0-0.3,0.1-0.5C4.8,11.2,5.1,10,5.7,8V6.9h1.1V8h0.7
		c0.1,0,0.2,0,0.3,0.1C8,8.2,8.1,8.3,8.1,8.4z M6.9,12.6c0.3,0,0.6-0.1,0.8-0.2C7.9,12.3,8,12.2,8,12s-0.1-0.3-0.3-0.4
		c-0.2-0.1-0.5-0.2-0.8-0.2S6.3,11.5,6,11.6c-0.2,0.1-0.3,0.2-0.3,0.4s0.1,0.3,0.3,0.4C6.3,12.5,6.5,12.6,6.9,12.6z"/>
</g>
</svg>
