<?xml version="1.0" encoding="utf-8"?>
<!-- Generator: Adobe Illustrator 16.0.4, SVG Export Plug-In . SVG Version: 6.00 Build 0)  -->
<!DOCTYPE svg PUBLIC "-//W3C//DTD SVG 1.1//EN" "http://www.w3.org/Graphics/SVG/1.1/DTD/svg11.dtd">
<svg version="1.1" id="Ebene_1" xmlns="http://www.w3.org/2000/svg" xmlns:xlink="http://www.w3.org/1999/xlink" x="0px" y="0px"
	 width="283.46px" height="113.39px" viewBox="0 0 283.46 113.39" enable-background="new 0 0 283.46 113.39" xml:space="preserve">
<defs>
	<filter id="Adobe_OpacityMaskFilter" filterUnits="userSpaceOnUse" x="5.896" y="7.354" width="90.198" height="95.445">

			<feColorMatrix  type="matrix" values="-1 0 0 0 1  0 -1 0 0 1  0 0 -1 0 1  0 0 0 1 0" color-interpolation-filters="sRGB" result="source"/>
	</filter>
</defs>
<mask maskUnits="userSpaceOnUse" x="5.896" y="7.354" width="90.198" height="95.445" id="SVGID_1_">
	<g filter="url(#Adobe_OpacityMaskFilter)">

			<linearGradient id="SVGID_2_" gradientUnits="userSpaceOnUse" x1="32.6943" y1="18.4189" x2="92.8887" y2="78.6134" gradientTransform="matrix(0.9996 0.0265 -0.0265 0.9996 -5.0195 -1.541)">
			<stop  offset="0" style="stop-color:#000000"/>
			<stop  offset="0.0864" style="stop-color:#1B1B1A"/>
			<stop  offset="0.2174" style="stop-color:#403F3F"/>
			<stop  offset="0.3767" style="stop-color:#636262"/>
			<stop  offset="0.5583" style="stop-color:#8F8E8E"/>
			<stop  offset="0.7585" style="stop-color:#C1C1C1"/>
			<stop  offset="0.9716" style="stop-color:#F8F8F8"/>
			<stop  offset="1" style="stop-color:#FFFFFF"/>
		</linearGradient>
		<path fill="url(#SVGID_2_)" d="M65.565,7.355c13.238-0.082,22.225,6.291,25.751,11.232c3.524,4.935,7.184,13.104,2.708,35.696
			c-4.474,22.588-15.905,43.708-24.396,47.461c-8.494,3.756-22.73-3.4-29.396-7.774c-6.663-4.376-28.868-19.28-33.68-40.825
			c-2.086-9.345,1.11-17.221,5.351-23.109C21.399,16.836,49.094,7.458,65.565,7.355z"/>
	</g>
</mask>
<linearGradient id="SVGID_3_" gradientUnits="userSpaceOnUse" x1="32.6943" y1="18.4189" x2="92.8887" y2="78.6134" gradientTransform="matrix(0.9996 0.0265 -0.0265 0.9996 -5.0195 -1.541)">
	<stop  offset="0" style="stop-color:#59B67E"/>
	<stop  offset="1" style="stop-color:#84CFEB"/>
</linearGradient>
<path mask="url(#SVGID_1_)" fill="url(#SVGID_3_)" d="M65.565,7.355c13.238-0.082,22.225,6.291,25.751,11.232
	c3.524,4.935,7.184,13.104,2.708,35.696c-4.474,22.588-15.905,43.708-24.396,47.461c-8.494,3.756-22.73-3.4-29.396-7.774
	c-6.663-4.376-28.868-19.28-33.68-40.825c-2.086-9.345,1.11-17.221,5.351-23.109C21.399,16.836,49.094,7.458,65.565,7.355z"/>
<g>
	<path fill="#FFFFFF" d="M29.302,45.769c-4.968,0-7.705-1.8-7.705-6.984c0-9.577,7.561-18.722,25.346-18.722
		c3.312,0,12.097,1.872,19.441,1.872c3.528,0,6.697-0.432,8.713-1.728c-1.728,3.168-2.736,5.256-6.048,21.674
		c3.096-3.528,6.264-4.176,8.569-4.176c4.608,0,7.993,2.376,7.993,8.137c0,5.833-3.457,14.545-3.457,18.577
		c0,1.801,0.72,3.024,2.88,3.024c3.168,0,4.464-2.593,6.048-6.337h3.024c-4.032,11.81-9.577,13.322-13.393,13.322
		c-6.265,0-8.497-4.033-8.497-8.137c0-4.896,3.24-13.754,3.24-18.362c0-2.376-0.864-3.672-2.592-3.672
		c-2.521,0-4.393,2.809-5.473,6.193c-1.224,6.264-2.664,13.969-4.393,23.546H52.632l9.865-45.94
		c-2.952-0.216-6.192-0.792-9.505-1.224L42.839,73.995H32.471l10.297-47.812c-8.065,0.288-14.474,3.384-14.474,14.689
		C28.294,44.544,29.23,45.121,29.302,45.769z"/>
	<path fill="#FFFFFF" d="M106.342,37.992l-0.936,4.464c2.521-2.16,5.256-4.464,8.713-4.464c3.24,0,4.968,2.664,4.968,5.4
		c0,2.52-1.656,5.256-5.184,5.256c-4.033,0-2.017-4.752-4.177-4.752s-3.456,1.08-5.256,2.736l-5.76,27.362H88.341l7.633-36.003
		H106.342z"/>
	<path fill="#FFFFFF" d="M127.654,68.379c5.688,0,9.145-3.168,12.745-7.273h2.448c-4.104,6.625-10.225,13.322-19.802,13.322
		c-6.769,0-11.233-3.312-11.233-11.449c0-8.281,4.68-25.635,19.441-25.635c6.409,0,7.921,3.312,7.921,6.913
		c0,8.281-7.921,14.689-16.562,15.193c-0.072,1.009-0.144,2.017-0.144,2.881C122.469,67.227,124.198,68.379,127.654,68.379z
		 M131.83,41.16c-3.672,0-7.201,7.705-8.641,14.833c5.544-0.36,10.441-5.905,10.441-11.881
		C133.63,42.312,133.198,41.16,131.83,41.16z"/>
	<path fill="#FFFFFF" d="M155.301,68.379c5.688,0,9.145-3.168,12.745-7.273h2.448c-4.104,6.625-10.225,13.322-19.802,13.322
		c-6.769,0-11.233-3.312-11.233-11.449c0-8.281,4.68-25.635,19.441-25.635c6.409,0,7.922,3.312,7.922,6.913
		c0,8.281-7.922,14.689-16.562,15.193c-0.071,1.009-0.144,2.017-0.144,2.881C150.116,67.227,151.845,68.379,155.301,68.379z
		 M159.477,41.16c-3.672,0-7.2,7.705-8.641,14.833c5.545-0.36,10.441-5.905,10.441-11.881
		C161.277,42.312,160.846,41.16,159.477,41.16z"/>
	<path fill="#FFFFFF" d="M203.974,44.256c-2.593,0-4.536,3.024-5.616,6.625l-4.896,23.114h-10.369l5.256-24.842
		c0.145-0.576,0.217-1.152,0.217-1.8c0-1.584-0.576-3.168-2.16-3.168c-2.809,0-4.752,3.096-5.832,6.697l-4.896,23.114h-10.369
		l7.633-36.003h10.368l-0.792,3.744c3.024-3.457,6.265-4.104,8.785-4.104c3.816,0,6.625,1.729,7.416,6.193
		c3.457-5.329,7.346-6.121,10.01-6.121c4.607,0,7.992,2.376,7.992,8.137c0,5.833-3.457,14.545-3.457,18.577
		c0,1.801,0.721,3.024,2.881,3.024c3.168,0,4.465-2.593,6.049-6.337h3.023c-4.031,11.81-9.576,13.322-13.393,13.322
		c-6.265,0-8.496-4.033-8.496-8.137c0-4.896,3.24-13.754,3.24-18.362C206.566,45.553,205.701,44.256,203.974,44.256z"/>
	<path fill="#FFFFFF" d="M236.3,67.586c2.736,0,6.192-1.799,8.497-3.816c-1.513,8.209-6.697,10.658-12.457,10.658
		c-6.697,0-11.162-3.312-11.162-11.449c0-8.281,4.682-25.635,19.442-25.635c6.409,0,7.921,3.312,7.921,6.913
		c0,8.353-7.921,14.689-16.562,15.193c-0.072,0.721-0.144,1.513-0.144,2.16C231.836,66.146,233.779,67.586,236.3,67.586z
		 M241.196,41.16c-3.601,0-7.2,7.993-8.713,14.833c5.616-0.288,10.513-5.833,10.513-11.881
		C242.996,42.312,242.564,41.16,241.196,41.16z"/>
</g>
</svg>
